<?xml version="1.0" encoding="UTF-8" standalone="no"?>
<!-- Generator: Adobe Illustrator 19.0.0, SVG Export Plug-In . SVG Version: 6.00 Build 0)  -->

<svg
   xmlns:dc="http://purl.org/dc/elements/1.1/"
   xmlns:cc="http://creativecommons.org/ns#"
   xmlns:rdf="http://www.w3.org/1999/02/22-rdf-syntax-ns#"
   xmlns:svg="http://www.w3.org/2000/svg"
   xmlns="http://www.w3.org/2000/svg"
   xmlns:sodipodi="http://sodipodi.sourceforge.net/DTD/sodipodi-0.dtd"
   xmlns:inkscape="http://www.inkscape.org/namespaces/inkscape"
   version="1.1"
   id="Capa_1"
   x="0px"
   y="0px"
   viewBox="0 0 424.96 424.96"
   style="enable-background:new 0 0 424.96 424.96;"
   xml:space="preserve"
   sodipodi:docname="share.svg"
   inkscape:version="0.92.4 (5da689c313, 2019-01-14)"><metadata
   id="metadata43"><rdf:RDF><cc:Work
       rdf:about=""><dc:format>image/svg+xml</dc:format><dc:type
         rdf:resource="http://purl.org/dc/dcmitype/StillImage" /></cc:Work></rdf:RDF></metadata><defs
   id="defs41" /><sodipodi:namedview
   pagecolor="#ffffff"
   bordercolor="#666666"
   borderopacity="1"
   objecttolerance="10"
   gridtolerance="10"
   guidetolerance="10"
   inkscape:pageopacity="0"
   inkscape:pageshadow="2"
   inkscape:window-width="1920"
   inkscape:window-height="1017"
   id="namedview39"
   showgrid="false"
   inkscape:zoom="0.5553464"
   inkscape:cx="212.48"
   inkscape:cy="212.48"
   inkscape:window-x="-8"
   inkscape:window-y="-8"
   inkscape:window-maximized="1"
   inkscape:current-layer="Capa_1" />
<g
   id="g6"
   transform="translate(-38)">
	<g
   id="g4">
		<path
   d="m 340.48,300.587 c -16.213,0 -30.827,6.293 -41.92,16.427 l -152,-88.64 c 1.173,-4.8 1.92,-9.813 1.92,-14.933 0,-5.12 -0.747,-10.133 -1.92,-14.933 l 150.4,-87.787 c 11.413,10.667 26.667,17.28 43.52,17.28 35.307,0 64,-28.693 64,-64 0,-35.307 -28.693,-64 -64,-64 -35.307,0 -64,28.693 -64,64 0,5.12 0.747,10.133 1.92,14.933 L 128,166.72 c -11.413,-10.667 -26.667,-17.28 -43.52,-17.28 -35.307,0 -64,28.693 -64,64 0,35.307 28.693,64 64,64 16.853,0 32.107,-6.613 43.52,-17.28 l 152,88.64 c -1.067,4.48 -1.707,9.173 -1.707,13.973 0,34.347 27.84,62.187 62.187,62.187 34.347,0 62.187,-27.84 62.187,-62.187 0,-34.347 -27.84,-62.186 -62.187,-62.186 z"
   id="path2"
   inkscape:connector-curvature="0" />
	</g>
</g>
<g
   id="g8"
   transform="translate(-38)">
</g>
<g
   id="g10"
   transform="translate(-38)">
</g>
<g
   id="g12"
   transform="translate(-38)">
</g>
<g
   id="g14"
   transform="translate(-38)">
</g>
<g
   id="g16"
   transform="translate(-38)">
</g>
<g
   id="g18"
   transform="translate(-38)">
</g>
<g
   id="g20"
   transform="translate(-38)">
</g>
<g
   id="g22"
   transform="translate(-38)">
</g>
<g
   id="g24"
   transform="translate(-38)">
</g>
<g
   id="g26"
   transform="translate(-38)">
</g>
<g
   id="g28"
   transform="translate(-38)">
</g>
<g
   id="g30"
   transform="translate(-38)">
</g>
<g
   id="g32"
   transform="translate(-38)">
</g>
<g
   id="g34"
   transform="translate(-38)">
</g>
<g
   id="g36"
   transform="translate(-38)">
</g>
</svg>